<?xml version="1.0" encoding="utf-8"?>
<!-- Generator: Adobe Illustrator 24.0.0, SVG Export Plug-In . SVG Version: 6.00 Build 0)  -->
<svg version="1.1" id="Layer_1" xmlns="http://www.w3.org/2000/svg" xmlns:xlink="http://www.w3.org/1999/xlink" x="0px" y="0px"
	 viewBox="0 0 459.6 84.3" style="enable-background:new 0 0 459.6 84.3;" xml:space="preserve">
<style type="text/css">
	.st0{fill:#275A8F;}
	.st1{fill:#161F48;}
	.st2{fill:#E0D9CE;}
	.st3{fill:#EAE5DD;}
	.st4{fill:none;stroke:#ADAFB2;stroke-width:0.5;stroke-miterlimit:10;}
	.st5{fill:#F19938;}
	.st6{fill:#9F7748;}
	.st7{fill:#E43727;}
	.st8{fill:#999897;}
	.st9{fill:#EDE7E1;}
</style>
<g>
	<path class="st5" d="M89.5,46.7V37c0-10,5.7-16.2,18.2-16.2c9.2,0,14.8,4.4,16.7,10.2c0.8,2.2,0.2,3.3-1.9,4l-4.9,1.6
		c-2.2,0.8-3.2,0.2-4.1-1.9c-1-2.4-3-3.9-6.3-3.9c-4.1,0-6.2,2-6.2,5.7v10.8c0,3.7,2.1,5.7,6.2,5.7c3.3,0,5.3-1.5,6.3-3.9
		c0.8-2.1,1.8-2.5,4.1-1.8l5,1.5c2.1,0.7,2.9,1.8,2,4.1c-2.7,6.3-8.2,10.1-17.6,10.1C94.8,62.9,89.5,56.7,89.5,46.7z"/>
	<path class="st5" d="M129.8,46.8v-9.9c0-10,6.3-16.1,18.2-16.1c12.1,0,18.3,6.1,18.3,16.1v9.9c0,10-6.2,16.1-18.3,16.1
		C136.1,62.9,129.8,56.8,129.8,46.8z M154.7,46.9V36.8c0-3.7-2.2-5.7-6.7-5.7c-4.4,0-6.7,2-6.7,5.7v10.1c0,3.7,2.2,5.7,6.7,5.7
		C152.5,52.6,154.7,50.6,154.7,46.9z"/>
	<path class="st5" d="M172.2,46.8v-9.9c0-10,6.3-16.1,18.2-16.1c12.1,0,18.3,6.1,18.3,16.1v9.9c0,10-6.2,16.1-18.3,16.1
		C178.5,62.9,172.2,56.8,172.2,46.8z M197.2,46.9V36.8c0-3.7-2.2-5.7-6.7-5.7c-4.4,0-6.7,2-6.7,5.7v10.1c0,3.7,2.2,5.7,6.7,5.7
		C194.9,52.6,197.2,50.6,197.2,46.9z"/>
	<path class="st5" d="M215.7,75.7V27.6c0-2.5,0.6-3.4,3.1-4.4c3.2-1.2,8-2.4,15.5-2.4c11.4,0,16.7,5.8,16.7,15.8v9.6
		c0,10.8-5.8,16.6-17.7,16.6c-2.1,0-4.1-0.3-6-0.7v13.5c0,2.1-0.7,2.8-2.8,2.8h-6C216.5,78.5,215.7,77.8,215.7,75.7z M239.4,46.3
		v-9.6c0-3.6-2.4-5.6-6.5-5.6c-2.1,0-3.7,0.2-5.3,0.5c-0.3,0.1-0.4,0.3-0.4,0.5v19.9c1.5,0.2,3.3,0.5,5.1,0.5
		C237.2,52.5,239.4,50.6,239.4,46.3z"/>
	<path class="st5" d="M256.9,45.9v-8.1c0-11,6.5-17,18.3-17c12.7,0,18.4,7.3,18.4,16.1v4.7c0,2.3-1,3.8-4,3.8h-21.3v1.9
		c0,4.1,2.6,6,6.9,6c3.6,0,5.9-1.2,7.3-3.1c1.3-1.8,2.2-2.1,4.4-0.9l3.7,1.8c2.1,1.1,2.5,2.4,1.2,4.5c-2.8,4.5-8.1,7.1-16.8,7.1
		C262,62.9,256.9,55.5,256.9,45.9z M282.1,37.1v-1.2c0-3.8-2.4-5.9-6.9-5.9c-4.4,0-6.8,2.1-6.8,5.9v1.2H282.1z"/>
	<path class="st5" d="M300.1,58.9V28.8c0-2.5,0.6-3.5,3.1-4.4c2.9-1.1,7.6-2.4,14.8-2.4h2.4c2.1,0,2.8,0.7,2.8,2.8v4.7
		c0,2.1-0.7,2.8-2.8,2.8h-2.8c-2.1,0-3.7,0.2-5.4,0.5c-0.4,0.1-0.5,0.3-0.5,0.5v25.5c0,2.1-0.7,2.8-2.8,2.8h-6
		C300.9,61.7,300.1,61,300.1,58.9z"/>
	<path class="st5" d="M326.1,50.2c0-9.6,5.3-12.5,17.8-12.5c2.1,0,4.3,0.2,5.4,0.2v-1.8c0-3.7-1.6-5.7-5.9-5.7c-3.1,0-5,1-6.3,2.8
		c-1.2,1.8-1.8,2.1-3.9,1.2l-4.2-1.7c-2-0.8-2.6-1.9-1.5-4.1c2.7-5,8.1-8,16.4-8c12.9,0,17.1,6.7,17.1,16.1v19.4
		c0,2.8-0.6,3.5-2.8,4.4c-2.9,1.3-7.9,2.1-14.4,2.1C329.8,62.9,326.1,58.4,326.1,50.2z M348.8,53.6c0.3-0.1,0.5-0.2,0.5-0.5v-6.5
		c-1.5-0.1-4.4-0.2-6.4-0.2c-4.4,0-5.3,1.7-5.3,3.8c0,2.1,0.8,3.8,5.1,3.8C346,54,347.9,53.8,348.8,53.6z"/>
	<path class="st5" d="M372,44.4V32.2h-4.1c-2.1,0-2.8-0.8-2.8-2.8v-4.6c0-2.1,0.7-2.8,2.8-2.8h4.1v-6.3c0-2.1,0.8-2.8,2.8-2.8h6
		c2.1,0,2.8,0.7,2.8,2.8V22h7.1c2.1,0,2.8,0.7,2.8,2.8v4.6c0,2.1-0.7,2.8-2.8,2.8h-7.1v11.7c0,6,1.9,7.1,7,7.1
		c2.1,0,2.8,0.7,2.8,2.9v4.8c0,2.2-0.7,3-2.8,3C377.2,61.7,372,57.8,372,44.4z"/>
	<path class="st5" d="M399.2,11.2v-0.8c0-4.1,1.2-5.2,5.4-5.2h1.5c4.1,0,5.4,1.1,5.4,5.2v0.8c0,4.1-1.2,5.2-5.4,5.2h-1.5
		C400.4,16.4,399.2,15.3,399.2,11.2z M399.5,58.9V24.8c0-2.1,0.8-2.8,2.8-2.8h6c2.1,0,2.8,0.7,2.8,2.8v34.1c0,2.1-0.7,2.8-2.8,2.8
		h-6C400.3,61.7,399.5,61,399.5,58.9z"/>
	<path class="st5" d="M429.6,59.2l-13-33.9c-0.9-2.6-0.4-3.3,2.4-3.3h4.6c3.3,0,4.2,0.5,4.9,2.8l5.2,14.9c1.4,3.9,1.9,9,1.9,9h0.5
		c0,0,0.5-5,1.8-9l5.1-14.8c0.8-2.4,1.5-2.9,4.8-2.9h4.8c2.8,0,3.4,0.7,2.4,3.3l-13.2,33.9c-0.8,2-1.7,2.5-3.8,2.5h-4.5
		C431.4,61.7,430.3,61.2,429.6,59.2z"/>
</g>
<path class="st1" d="M30.2,50.9C28.8,48,28,44.8,28,41.4h0v-0.1H6c0,12.3,9.9,22.3,22.1,22.3l22.4-0.8
	C41.6,62.8,33.7,58.4,30.2,50.9z"/>
<path class="st5" d="M30.2,31.8c-1.4,2.9-2.2,6.1-2.2,9.5h0v0.1H6c0-12.3,9.9-22.3,22.1-22.3l20.8,0.5
	C40.1,19.6,33.8,24.3,30.2,31.8z"/>
<path class="st2" d="M49.6,19.1C49.6,19.1,49.6,19.1,49.6,19.1L49.6,19.1H27.7v0c11.2,0,21.1,8.4,21.8,19.4c0,0.7,0.1,2.9,0.1,2.9
	l22,0c0-12.2-9.8-22.1-21.8-22.3v0H49.6z"/>
<path class="st3" d="M49.6,63.6C49.6,63.6,49.6,63.6,49.6,63.6L49.6,63.6H27.8v0c11.2,0,21.1-8.4,21.8-19.4c0-0.7,0-2.9,0-2.9
	l22.1,0c0,12.2-9.8,22.1-21.8,22.3v0H49.6z"/>
</svg>
