<?xml version="1.0" encoding="utf-8"?>
<!-- Generator: Adobe Illustrator 24.0.0, SVG Export Plug-In . SVG Version: 6.00 Build 0)  -->
<svg version="1.1" id="Layer_1" xmlns="http://www.w3.org/2000/svg" xmlns:xlink="http://www.w3.org/1999/xlink" x="0px" y="0px"
	 viewBox="0 0 73.4 52.5" style="enable-background:new 0 0 73.4 52.5;" xml:space="preserve">
<style type="text/css">
	.st0{fill:#275A8F;}
	.st1{fill:#161F48;}
	.st2{fill:#E0D9CE;}
	.st3{fill:#EAE5DD;}
	.st4{fill:none;stroke:#ADAFB2;stroke-width:0.5;stroke-miterlimit:10;}
	.st5{fill:#F19938;}
	.st6{fill:#9F7748;}
	.st7{fill:#E43727;}
	.st8{fill:#999897;}
	.st9{fill:#EDE7E1;}
</style>
<path class="st1" d="M28.5,35c-1.4-2.9-2.2-6.1-2.2-9.5h0v-0.1h-22c0,12.3,9.9,22.3,22.1,22.3l22.4-0.8C40,46.9,32.1,42.5,28.5,35z"
	/>
<path class="st5" d="M28.5,15.9c-1.4,2.9-2.2,6.1-2.2,9.5h0v0.1h-22c0-12.3,9.9-22.3,22.1-22.3l20.8,0.5
	C38.4,3.7,32.1,8.4,28.5,15.9z"/>
<path class="st2" d="M47.9,3.2C47.9,3.2,47.9,3.2,47.9,3.2L47.9,3.2H26v0c11.2,0,21.1,8.4,21.8,19.4c0,0.7,0.1,2.9,0.1,2.9l22,0
	c0-12.2-9.8-22.1-21.8-22.3v0H47.9z"/>
<path class="st3" d="M48,47.7C48,47.7,48,47.7,48,47.7L48,47.7H26.1v0c11.2,0,21.1-8.4,21.8-19.4c0-0.7,0-2.9,0-2.9l22.1,0
	c0,12.2-9.8,22.1-21.8,22.3v0H48z"/>
</svg>
